<?xml version="1.0" encoding="UTF-8" standalone="no"?>
<!-- Created with Inkscape (http://www.inkscape.org/) -->

<svg
   xmlns:dc="http://purl.org/dc/elements/1.1/"
   xmlns:cc="http://creativecommons.org/ns#"
   xmlns:rdf="http://www.w3.org/1999/02/22-rdf-syntax-ns#"
   xmlns:svg="http://www.w3.org/2000/svg"
   xmlns="http://www.w3.org/2000/svg"
   xmlns:sodipodi="http://sodipodi.sourceforge.net/DTD/sodipodi-0.dtd"
   xmlns:inkscape="http://www.inkscape.org/namespaces/inkscape"
   width="130"
   height="110"
   id="svg3969"
   version="1.1"
   inkscape:version="0.47 r22583"
   sodipodi:docname="Bashneft logo.svg">
  <defs
     id="defs3">
    <inkscape:perspective
       sodipodi:type="inkscape:persp3d"
       inkscape:vp_x="0 : 526.18109 : 1"
       inkscape:vp_y="0 : 1000 : 0"
       inkscape:vp_z="744.09448 : 526.18109 : 1"
       inkscape:persp3d-origin="372.04724 : 350.78739 : 1"
       id="perspective3975" />
    <inkscape:perspective
       id="perspective3985"
       inkscape:persp3d-origin="0.5 : 0.33333333 : 1"
       inkscape:vp_z="1 : 0.5 : 1"
       inkscape:vp_y="0 : 1000 : 0"
       inkscape:vp_x="0 : 0.5 : 1"
       sodipodi:type="inkscape:persp3d" />
  </defs>
  <sodipodi:namedview
     inkscape:document-units="mm"
     id="base"
     pagecolor="#ffffff"
     bordercolor="#666666"
     borderopacity="1.0"
     inkscape:pageopacity="0.0"
     inkscape:pageshadow="2"
     inkscape:zoom="1.979899"
     inkscape:cx="79.097102"
     inkscape:cy="53.410281"
     inkscape:current-layer="layer1"
     showgrid="false"
     showguides="true"
     inkscape:guide-bbox="true"
     inkscape:window-width="1280"
     inkscape:window-height="738"
     inkscape:window-x="-8"
     inkscape:window-y="32"
     inkscape:window-maximized="1" />
  <metadata
     id="metadata4">
    <rdf:RDF>
      <cc:Work
         rdf:about="">
        <dc:format>image/svg+xml</dc:format>
        <dc:type
           rdf:resource="http://purl.org/dc/dcmitype/StillImage" />
      </cc:Work>
    </rdf:RDF>
  </metadata>
  <g
     inkscape:label="Layer 1"
     inkscape:groupmode="layer"
     id="layer1"
     transform="translate(-303.04575,-455.57646)">
    <rect
       style="fill:#000000;fill-opacity:1;stroke:none"
       id="rect4511"
       width="122.73354"
       height="74.751289"
       x="307.59143"
       y="459.90771" />
    <path
       style="fill:#ffff00;fill-opacity:1;stroke:none"
       d="m 369.21076,488.22259 61.11423,21.68765 0,24.74874 -61.11423,-21.68765 0,-24.74874 z"
       id="rect4519"
       sodipodi:nodetypes="ccccc" />
    <path
       style="fill:#ffffff;fill-opacity:1;stroke:none"
       d="m 307.59144,506.37472 61.61932,-46.46701 0,28.28427 -61.61932,46.46701 0,-28.28427 z"
       id="rect4523"
       sodipodi:nodetypes="ccccc" />
    <g
       transform="matrix(1.2907003,0,0,0.79663622,4.5456865,-43.640381)"
       style="font-size:20.65120506px;font-style:normal;font-weight:normal;fill:#000000;fill-opacity:1;stroke:none;font-family:Impact;-inkscape-font-specification:Impact"
       id="text4531">
      <path
         d="m 244.76935,755.20877 c -1e-5,1.21676 -0.15799,2.09067 -0.47393,2.62174 -0.31596,0.53107 -0.79493,0.86383 -1.43691,0.99827 -0.642,0.13445 -1.66548,0.20168 -3.07046,0.20168 l -4.91071,0 0,-16.33543 8.31897,0 0,2.83349 -4.06369,0 0,2.76291 0.65543,0 c 1.31086,10e-6 2.30242,0.0773 2.97466,0.23192 0.67223,0.15462 1.17473,0.49579 1.5075,1.02348 0.33275,0.52772 0.49913,1.35626 0.49914,2.48561 z m -4.25528,-0.49409 0,-2.35956 c 0,-0.68568 -0.0689,-1.10247 -0.20671,-1.25037 -0.13782,-0.14788 -0.5294,-0.23191 -1.17474,-0.25209 l 0,5.36447 c 0.53779,10e-6 0.90247,-0.0689 1.09407,-0.20671 0.19158,-0.13781 0.28738,-0.56972 0.28738,-1.29574 z"
         id="path4540" />
      <path
         d="m 253.62275,742.70511 2.43014,16.32535 -4.34603,0 -0.21175,-2.93433 -1.52263,0 -0.25209,2.93433 -4.39644,0 2.15789,-16.32535 z m -2.24865,10.49703 c -0.21512,-1.84865 -0.43023,-4.13091 -0.64535,-6.84676 -0.43023,3.1192 -0.69913,5.40145 -0.80668,6.84676 z"
         id="path4542" />
      <path
         d="m 272.08581,759.03046 -15.3069,0 0,-16.33543 4.25528,0 0,13.06834 1.26045,0 0,-13.06834 4.25528,0 0,13.06834 1.26045,0 0,-13.06834 4.27544,0 z"
         id="path4544" />
      <path
         d="m 283.56095,742.70511 0,16.32535 -4.2452,0 0,-6.85685 -1.27053,0 0,6.85685 -4.24519,0 0,-16.32535 4.24519,0 0,5.83841 1.27053,0 0,-5.83841 z"
         id="path4546" />
      <path
         d="m 285.25499,742.70511 7.07868,0 0,3.26709 -2.83349,0 0,3.09566 2.65199,0 0,3.10575 -2.65199,0 0,3.58976 3.11583,0 0,3.26709 -7.36102,0 z"
         id="path4548" />
      <path
         d="m 309.12286,751.03416 c -10e-6,1.06887 -0.0504,1.83859 -0.15125,2.30915 -0.14119,0.65208 -0.44033,1.24029 -0.89744,1.76463 -0.71259,0.81341 -2.05371,1.22012 -4.02336,1.22011 l -0.74618,0 0,2.70241 -4.25528,0 0,-2.70241 -0.65543,0 c -1.97639,1e-5 -3.32087,-0.4067 -4.03344,-1.22011 -0.45713,-0.52434 -0.75627,-1.11255 -0.89744,-1.76463 -0.10084,-0.47056 -0.15126,-1.24028 -0.15126,-2.30915 l 0,-0.28234 c 0,-1.06885 0.0504,-1.83856 0.15126,-2.30914 0.14117,-0.65206 0.44031,-1.24027 0.89744,-1.76463 0.70585,-0.79323 2.05032,-1.18985 4.03344,-1.18986 0.14788,10e-6 0.36636,-0.0101 0.65543,-0.0303 l 0,-2.76291 4.25528,0 0,2.76291 c 0.34283,0.0202 0.59156,0.0303 0.74618,0.0303 1.9831,10e-6 3.32421,0.39663 4.02336,1.18986 0.45711,0.52436 0.75625,1.11257 0.89744,1.76463 0.10082,0.47058 0.15124,1.24029 0.15125,2.30914 z m -4.24519,0.91761 0,-2.10747 c -1e-5,-0.55795 -0.10925,-1.00499 -0.32772,-1.34112 -0.21849,-0.33611 -0.48906,-0.50417 -0.81173,-0.50418 l -0.43359,0 0,5.78799 0.43359,0 c 0.32267,0 0.59324,-0.16806 0.81173,-0.50418 0.21847,-0.33612 0.32771,-0.77979 0.32772,-1.33104 z m -5.82832,1.83522 0,-5.78799 -0.35293,0 c -0.31595,10e-6 -0.58317,0.16807 -0.80164,0.50418 -0.21849,0.33613 -0.32772,0.78317 -0.32772,1.34112 l 0,2.10747 c 0,0.55125 0.10923,0.99492 0.32772,1.33104 0.21847,0.33612 0.48569,0.50418 0.80164,0.50418 z"
         id="path4550" />
      <path
         d="m 318.85353,742.70511 0,3.26709 -2.5209,0 0,13.05826 -4.24519,0 0,-13.05826 -2.51082,0 0,-3.26709 z"
         id="path4552" />
      <path
         d="m 329.71356,755.20877 c -10e-6,1.21676 -0.15798,2.09067 -0.47393,2.62174 -0.31596,0.53107 -0.79493,0.86383 -1.43691,0.99827 -0.642,0.13445 -1.66548,0.20168 -3.07045,0.20168 l -4.91071,0 0,-16.33543 4.25527,0 0,5.5964 0.65544,0 c 1.31086,10e-6 2.30241,0.0773 2.97466,0.23192 0.67223,0.15462 1.17473,0.49579 1.5075,1.02348 0.33274,0.52772 0.49912,1.35626 0.49913,2.48561 z m -4.25527,-0.49409 0,-2.35956 c -10e-6,-0.68568 -0.0689,-1.10247 -0.20672,-1.25037 -0.13781,-0.14788 -0.52939,-0.23191 -1.17474,-0.25209 l 0,5.36447 c 0.53779,10e-6 0.90248,-0.0689 1.09407,-0.20671 0.19158,-0.13781 0.28738,-0.56972 0.28739,-1.29574 z"
         id="path4554" />
    </g>
  </g>
</svg>
