<?xml version="1.0" encoding="UTF-8" standalone="no"?>
<!DOCTYPE svg PUBLIC "-//W3C//DTD SVG 1.1//EN" "http://www.w3.org/Graphics/SVG/1.1/DTD/svg11.dtd">
<svg version="1.1" xmlns="http://www.w3.org/2000/svg" xmlns:xlink="http://www.w3.org/1999/xlink" preserveAspectRatio="xMidYMid meet" viewBox="0.4588997298264461 0.9996454796066716 137.71006010570645 135.80656145956291" width="133.71" height="131.81"><defs><path d="M83.17 115.35C83.16 115.36 83.33 115.33 83.65 115.27C83.97 115.2 84.17 115.18 84.79 115.02C85.4 114.85 85.91 114.77 86.79 114.48C87.67 114.19 88.44 113.99 89.56 113.55C90.68 113.12 91.67 112.74 92.99 112.14C94.3 111.55 95.27 111.1 96.72 110.27C98.16 109.43 99.32 108.79 100.84 107.69C102.36 106.6 103.61 105.68 105.16 104.32C106.7 102.96 107.95 101.72 109.47 100.1C110.99 98.48 112.09 97.07 113.44 95.14C114.79 93.21 115.89 91.54 117 89.33C118.11 87.12 119.1 85.18 119.92 82.74C120.73 80.3 121.39 77.98 121.98 75.4C122.57 72.82 122.78 70.39 122.99 67.7C123.2 65 123.05 62.45 122.86 59.72C122.66 57 122.13 54.4 121.52 51.72C120.91 49.05 120 46.47 119 43.93C118 41.38 116.71 38.91 115.36 36.57C114.01 34.23 112.36 31.95 110.71 29.88C109.06 27.81 107.11 25.77 105.23 24.01C103.35 22.25 101.16 20.49 99.13 19.07C97.1 17.66 94.75 16.18 92.64 15.12C90.54 14.06 88.2 13.02 86.13 12.21C84.06 11.41 81.56 10.63 79.55 10.17C77.55 9.71 75.26 9.25 73.4 9.01C71.54 8.76 69.38 8.56 67.71 8.51C66.04 8.46 64.26 8.48 62.82 8.5C61.37 8.53 59.59 8.73 58.41 8.87C57.22 9.01 55.92 9.21 55 9.36C54.08 9.52 53.06 9.72 52.44 9.86C51.81 9.99 51.33 10.09 51.01 10.16C50.69 10.22 50.53 10.25 50.53 10.24C50.54 10.22 50.54 10.2 50.55 10.18C50.56 10.17 50.57 10.15 50.58 10.13C50.6 10.11 50.61 10.1 50.62 10.08C50.64 10.07 50.65 10.05 50.67 10.03C50.69 10.02 50.7 10 50.72 9.99C50.74 9.97 50.76 9.95 50.78 9.94C50.8 9.92 50.83 9.91 50.85 9.89C50.87 9.88 50.89 9.86 50.92 9.85C50.94 9.83 50.97 9.82 50.99 9.8C51.02 9.79 51.04 9.78 51.07 9.76C51.1 9.75 51.12 9.73 51.15 9.72C51.18 9.71 51.21 9.69 51.24 9.68C51.27 9.66 51.29 9.65 51.32 9.63C51.35 9.62 51.38 9.61 51.41 9.59C51.44 9.58 51.47 9.56 51.5 9.55C51.53 9.54 51.56 9.52 51.59 9.51C51.62 9.5 51.65 9.48 51.67 9.47C51.7 9.45 51.73 9.44 51.76 9.43C51.79 9.41 51.82 9.4 51.85 9.38C51.88 9.37 51.9 9.36 51.93 9.34C51.96 9.33 51.98 9.31 52.01 9.3C52.04 9.29 52.06 9.27 52.09 9.26C52.11 9.24 52.14 9.23 52.16 9.21C52.18 9.2 52.21 9.18 52.23 9.17C52.25 9.15 52.27 9.14 52.29 9.12C52.31 9.11 52.33 9.09 52.35 9.08C52.37 9.06 52.39 9.04 52.4 9.03C52.42 9.01 52.43 9 52.45 8.98C52.46 8.96 52.47 8.95 52.48 8.93C52.49 8.91 52.5 8.9 52.51 8.88C52.52 8.86 52.53 8.84 52.53 8.83C52.53 8.81 52.54 8.79 52.54 8.77C52.54 8.76 52.68 8.7 52.96 8.62C53.24 8.54 53.96 8.37 54.51 8.25C55.06 8.13 56.04 7.9 56.84 7.78C57.65 7.65 58.87 7.43 59.92 7.32C60.96 7.22 62.41 7.06 63.68 7C64.94 6.94 66.6 6.91 68.06 6.92C69.53 6.92 71.64 7.08 73.27 7.25C74.9 7.42 77.14 7.76 78.9 8.12C80.66 8.48 82.97 9.07 84.83 9.65C86.68 10.22 89 11.11 90.91 11.91C92.81 12.7 95.31 13.97 97.17 15.08C99.03 16.2 101.23 17.65 103.04 18.99C104.85 20.32 107.06 22.2 108.71 23.83C110.35 25.46 112.18 27.48 113.69 29.3C115.2 31.11 116.83 33.54 118.07 35.59C119.31 37.63 120.68 40.19 121.6 42.4C122.53 44.62 123.46 47.15 124.15 49.44C124.84 51.73 125.47 54.45 125.8 56.79C126.14 59.13 126.38 61.7 126.48 64.01C126.58 66.33 126.49 68.93 126.25 71.17C126.01 73.4 125.63 75.76 125.2 77.88C124.76 80 124.14 82.27 123.44 84.21C122.73 86.14 121.97 88.13 121.13 89.88C120.3 91.63 119.38 93.38 118.46 94.93C117.54 96.47 116.54 97.98 115.57 99.3C114.6 100.62 113.62 101.9 112.65 102.99C111.67 104.08 110.73 105.1 109.84 106C108.95 106.91 108.1 107.74 107.3 108.42C106.49 109.09 105.79 109.73 105.15 110.23C104.5 110.72 103.95 111.15 103.51 111.49C103.07 111.84 102.71 112.09 102.48 112.26C102.24 112.44 102.13 112.53 102.13 112.54C102.14 112.56 102.27 112.48 102.52 112.33C102.77 112.17 103.15 111.93 103.61 111.6C104.07 111.27 104.64 110.86 105.3 110.37C105.97 109.89 106.74 109.27 107.53 108.56C108.32 107.85 109.23 107.06 110.13 106.15C111.04 105.25 112.01 104.22 113 103.13C113.99 102.03 115.01 100.71 115.99 99.38C116.98 98.05 118 96.5 118.94 94.94C119.88 93.39 120.81 91.58 121.66 89.81C122.51 88.05 123.39 85.94 124.02 83.95C124.64 81.97 125.3 79.72 125.75 77.58C126.2 75.44 126.54 73.01 126.79 70.75C127.04 68.49 127.06 65.79 126.96 63.45C126.87 61.12 126.56 58.48 126.23 56.11C125.89 53.75 125.15 50.95 124.46 48.64C123.76 46.33 122.75 43.53 121.71 41.34C120.67 39.16 119.35 36.67 118.1 34.61C116.85 32.55 115.06 30.1 113.53 28.27C112.01 26.43 109.98 24.18 108.24 22.62C106.5 21.06 104.37 19.28 102.55 17.93C100.72 16.58 98.22 14.98 96.29 13.94C94.37 12.9 91.98 11.74 90.06 10.93C88.14 10.13 85.71 9.31 83.84 8.73C81.97 8.15 79.56 7.65 77.78 7.28C76 6.91 73.67 6.67 72.02 6.49C70.37 6.32 68.17 6.28 66.7 6.26C65.22 6.25 63.18 6.32 61.91 6.44C60.63 6.55 59.13 6.71 58.08 6.86C57.03 7 55.75 7.22 54.94 7.37C54.13 7.53 53.1 7.73 52.54 7.87C51.99 8 51.57 8.1 51.28 8.17C50.99 8.24 50.84 8.27 50.84 8.27C50.83 8.26 51.01 8.19 51.38 8.08C51.74 7.96 52.63 7.68 53.36 7.51C54.08 7.34 55.32 7.02 56.39 6.83C57.46 6.65 59.04 6.37 60.43 6.2C61.82 6.03 64.06 5.79 65.75 5.76C67.43 5.73 69.95 5.68 71.89 5.84C73.83 6 76.56 6.28 78.72 6.67C80.87 7.07 83.74 7.77 86.05 8.43C88.36 9.1 91.56 10.39 93.92 11.46C96.28 12.52 99.41 14.31 101.73 15.79C104.05 17.27 106.97 19.59 109.16 21.48C111.35 23.37 114.19 26.39 116.04 28.76C117.9 31.12 120.11 34.36 121.64 37.05C123.17 39.74 125.01 43.61 125.98 46.61C126.96 49.61 128.06 53.46 128.58 56.61C129.09 59.77 129.42 63.75 129.46 66.95C129.5 70.16 129.09 74.34 128.5 77.48C127.92 80.62 126.87 84.36 125.85 87.35C124.83 90.34 123.08 93.96 121.54 96.64C120.01 99.33 117.89 102.35 116.04 104.72C114.18 107.09 111.55 109.8 109.37 111.69C107.18 113.59 104.48 115.7 102.15 117.18C99.83 118.66 96.99 120.26 94.62 121.31C92.24 122.36 89.55 123.35 87.26 124.1C84.97 124.85 82.19 125.45 80.03 125.82C77.87 126.18 75.46 126.45 73.51 126.58C71.56 126.71 69.4 126.7 67.71 126.65C66.02 126.59 64.16 126.44 62.77 126.26C61.38 126.08 59.99 125.85 58.92 125.67C57.84 125.48 56.79 125.23 56.06 125.07C55.32 124.91 54.62 124.73 54.25 124.63C53.87 124.54 53.67 124.5 53.67 124.52C53.66 124.54 53.85 124.62 54.22 124.74C54.59 124.86 55.29 125.09 56.01 125.27C56.74 125.46 57.8 125.74 58.87 125.96C59.93 126.17 61.33 126.42 62.72 126.62C64.11 126.83 66.01 127.01 67.7 127.09C69.39 127.16 71.59 127.19 73.54 127.08C75.49 126.97 77.95 126.71 80.11 126.36C82.27 126.02 85.14 125.41 87.43 124.67C89.72 123.94 92.48 122.93 94.85 121.9C97.23 120.86 100.16 119.23 102.49 117.76C104.81 116.29 107.6 114.13 109.79 112.25C111.98 110.36 114.72 107.56 116.57 105.2C118.43 102.84 120.61 99.74 122.16 97.06C123.7 94.38 125.3 90.84 126.46 87.91C127.63 84.98 128.66 80.84 129.25 77.71C129.84 74.57 130.28 70.24 130.24 67.04C130.21 63.84 129.9 59.74 129.38 56.59C128.87 53.45 127.77 49.47 126.8 46.48C125.83 43.48 123.95 39.46 122.43 36.77C120.91 34.08 118.65 30.72 116.81 28.36C114.96 25.99 112.2 23.16 110.11 21.17C108.02 19.18 104.69 16.63 102.37 15.15C100.06 13.66 96.84 11.79 94.49 10.72C92.14 9.64 89.15 8.48 86.88 7.7C84.62 6.92 81.29 6.17 79.15 5.76C77.01 5.35 74.19 5.03 72.26 4.85C70.32 4.67 67.71 4.68 66.03 4.69C64.35 4.7 62.01 4.9 60.63 5.05C59.24 5.19 57.61 5.44 56.55 5.61C55.48 5.77 54.18 6.06 53.46 6.21C52.73 6.35 51.77 6.6 51.41 6.68C51.05 6.76 50.86 6.8 50.87 6.78C50.9 6.74 51.13 6.64 51.58 6.48C52.02 6.32 53.09 6.01 53.94 5.79C54.79 5.56 56.26 5.22 57.49 4.97C58.72 4.73 61.01 4.34 62.62 4.19C64.22 4.05 66.86 3.82 68.8 3.84C70.73 3.86 73.68 3.95 75.9 4.2C78.11 4.44 81.74 4.99 84.15 5.62C86.56 6.26 89.87 7.29 92.44 8.24C95 9.19 99.09 11.19 101.61 12.72C104.12 14.26 107.67 16.71 110.08 18.71C112.49 20.7 116.02 24.15 118.1 26.7C120.17 29.24 122.84 33.06 124.58 35.99C126.32 38.92 128.42 43.73 129.57 47.04C130.72 50.36 131.98 55.53 132.45 59.07C132.91 62.62 133.2 67.96 132.95 71.56C132.7 75.17 131.93 80.44 130.98 83.95C130.04 87.45 128.25 92.42 126.66 95.67C125.07 98.92 122.36 103.4 120.21 106.25C118.06 109.1 114.56 112.95 111.95 115.29C109.35 117.62 105.25 120.73 102.32 122.45C99.39 124.18 95.24 126.19 92.21 127.41C89.17 128.63 84.45 129.97 81.39 130.52C78.32 131.08 74.07 131.57 71.14 131.66C68.21 131.74 64.16 131.52 61.47 131.2C58.77 130.87 55.04 130.1 52.65 129.46C50.26 128.81 46.92 127.68 44.9 126.8C42.87 125.92 40.31 124.7 38.64 123.78C36.96 122.85 34.82 121.52 33.51 120.62C32.2 119.73 30.43 118.45 29.49 117.66C28.54 116.87 27.44 115.95 26.82 115.37C26.19 114.8 25.71 114.36 25.39 114.06C25.07 113.76 24.64 113.32 24.64 113.32C24.85 113.52 25.89 114.49 27.77 116.23L30.78 118.67L33.92 120.94L37.53 123.21L40.95 125.05L44.47 126.68L48.08 128.11L52.16 129.4L55.93 130.35L59.76 131.07L64.03 131.58L67.93 131.79L71.84 131.77L76.16 131.47L80.04 130.92L83.88 130.15L87.67 129.15L91.4 127.93L95.44 126.29L98.98 124.58L102.4 122.67L106.06 120.31L109.2 117.97L112.19 115.44L115.03 112.74L117.97 109.54L120.42 106.49L122.7 103.3L124.98 99.61L126.82 96.15L128.46 92.59L130.02 88.53L131.18 84.78L132.12 80.97L132.83 77.1L133.32 72.75L133.52 68.81L133.48 64.86L133.14 60.46L132.58 56.55L131.78 52.67L130.75 48.84L129.33 44.64L127.81 40.98L126.07 37.42L124.13 33.96L121.7 30.26L119.31 27.1L116.75 24.08L113.67 20.91L110.73 18.26L107.64 15.8L104.42 13.51L100.65 11.21L97.15 9.37L93.55 7.73L89.41 6.17L85.62 5.02L81.76 4.08L77.38 3.32L73.42 2.91L69.44 2.72L65.46 2.78C62.77 3 61.28 3.13 60.98 3.15C60.98 3.15 72.27 1.62 76.35 2.09C79.17 2.41 83.81 3.33 87.08 4.2C90.35 5.07 96.22 7.34 99.63 9.2C103.03 11.05 108.23 14.43 111.54 17.17C114.86 19.91 119.76 25.16 122.52 28.91C125.28 32.66 129.41 40.07 131.21 45.25C133 50.43 134.96 59.37 135.15 65.37C135.33 71.37 134.21 81.25 132.3 87.17C130.4 93.08 126.11 102 122.43 106.88C118.75 111.76 111.71 118.89 106.6 122.26C101.5 125.62 93.26 129.59 88.16 131.06C83.05 132.53 75.45 133.68 71.57 133.79C67.7 133.89 63.13 133.55 62.81 133.51C62.48 133.47 60.46 133.27 58.24 132.92C56.01 132.58 51.63 131.58 48.52 130.64C45.42 129.7 40.19 127.45 36.75 125.66C33.32 123.86 27.84 120.05 24.77 117.38C21.71 114.71 17.4 110.02 14.78 106.66C12.17 103.3 8.72 97.01 7.01 93.11C5.29 89.21 3.21 82.33 2.54 78.32C1.87 74.31 1.37 68.01 1.47 64.34C1.58 60.67 2.32 54.7 3.08 51.31C3.84 47.93 5.59 42.37 6.87 39.45C8.15 36.52 10.43 32.14 11.93 29.72C13.43 27.3 16.19 23.6 17.74 21.74C19.3 19.88 21.78 17.36 23.15 16C28.84 12.01 27.44 13.68 32.67 11.68C40.26 8.7 50.28 11.92 52 15.26C53.72 18.6 51.5 27.61 42.34 36.73C40.96 38 40.36 38.48 38.77 40.25C37.17 42.03 36.77 42.43 35.19 44.79C33.62 47.14 33.13 48 31.73 50.9C30.33 53.8 30.16 54.45 29.24 57.87C28.32 61.3 28.22 62.22 27.95 66.02C27.68 69.83 27.59 70.49 28.34 74.83C29.1 79.17 29.11 80.35 31.04 84.7C32.98 89.05 33.52 90.45 36.52 94.29C39.53 98.13 40.69 99.29 44.42 102.24C48.15 105.19 49.13 105.88 53.48 107.65C57.82 109.42 59.22 110.06 63.21 110.66C67.2 111.27 68.61 111.53 71.51 111.41C74.42 111.29 75.49 111.23 75.73 111.2C75.96 111.17 76.8 111.17 78.98 110.8C81.15 110.43 82.49 110.33 85.74 109.26C88.99 108.18 90.78 107.6 94.52 105.46C98.26 103.32 100.16 102 103.62 98.69C107.08 95.38 108.83 93.41 111.42 88.9C114.01 84.39 115.46 81.47 116.7 76.22C117.95 70.98 118.52 67.4 118.18 62.05C117.85 56.69 117.09 52.77 115.51 47.9C113.92 43.03 112.15 39.58 109.31 35.54C106.47 31.51 103.72 28.48 100.23 25.45C96.74 22.42 93.38 20.31 89.67 18.4C89.91 18.43 90.25 18.51 90.66 18.64C91.08 18.76 91.51 18.91 92.07 19.15C92.64 19.38 93.23 19.61 93.93 19.97C94.62 20.32 95.35 20.66 96.15 21.14C96.96 21.62 97.79 22.09 98.68 22.7C99.57 23.31 100.47 23.93 101.43 24.67C102.39 25.41 103.32 26.2 104.33 27.07C105.35 27.94 106.23 28.85 107.22 29.9C108.22 30.95 109.14 31.95 110.08 33.17C111.03 34.4 111.92 35.62 112.84 36.97C113.77 38.31 114.49 39.64 115.31 41.13C116.13 42.63 116.76 44.06 117.45 45.69C118.14 47.32 118.65 48.83 119.19 50.57C119.72 52.32 120.11 53.88 120.47 55.72C120.83 57.55 121.05 59.16 121.23 61.05C121.4 62.93 121.45 64.56 121.43 66.48C121.42 68.39 121.27 70 121.07 71.91C120.86 73.82 120.53 75.39 120.13 77.26C119.74 79.14 119.23 80.63 118.66 82.44C118.09 84.25 117.56 85.49 116.75 87.17C115.94 88.85 115.32 90.17 114.37 91.74C113.43 93.3 112.7 94.49 111.64 95.92C110.58 97.34 109.79 98.39 108.65 99.66C107.5 100.93 106.7 101.84 105.49 102.95C104.28 104.05 103.26 104.94 102.06 105.93C100.87 106.91 100.03 107.46 98.83 108.27C97.62 109.08 96.91 109.57 95.73 110.2C94.55 110.84 93.66 111.32 92.56 111.85C91.46 112.38 90.66 112.72 89.66 113.15C88.66 113.57 87.97 113.8 87.08 114.13C86.2 114.45 85.65 114.6 84.9 114.84C84.15 115.08 83.76 115.18 83.16 115.35C83.16 115.35 83.16 115.35 83.16 115.35" id="d1KST76Tld"></path></defs><g><g><use xlink:href="#d1KST76Tld" opacity="1" fill="#f50000" fill-opacity="1"></use><g><use xlink:href="#d1KST76Tld" opacity="1" fill-opacity="0" stroke="#000000" stroke-width="1" stroke-opacity="0"></use></g></g></g></svg>